<svg xmlns="http://www.w3.org/2000/svg" width="58.405" height="58.973" viewBox="0 0 58.405 58.973">
  <g id="Accelerometer_Icon" data-name="Accelerometer Icon" transform="translate(593.621 -2075.845)">
    <g id="Ellipse_3" data-name="Ellipse 3" transform="translate(-572.468 2103.572)" fill="none" stroke="#707070" stroke-width="1">
      <circle cx="8.099" cy="8.099" r="8.099" stroke="none"/>
      <circle cx="8.099" cy="8.099" r="7.599" fill="none"/>
    </g>
    <line id="Line_1" data-name="Line 1" y2="15.047" transform="translate(-564.47 2119.771)" fill="none" stroke="#707070" stroke-width="1"/>
    <line id="Line_2" data-name="Line 2" x1="12.353" y2="8.931" transform="translate(-557.452 2098.861)" fill="none" stroke="#707070" stroke-width="1"/>
    <line id="Line_3" data-name="Line 3" x2="11.371" y2="9.134" transform="translate(-582.27 2098.658)" fill="none" stroke="#707070" stroke-width="1"/>
    <line id="Line_4" data-name="Line 4" x1="15.047" y2="11.286" transform="translate(-585.125 2115.925)" fill="none" stroke="#707070" stroke-width="1"/>
    <line id="Line_5" data-name="Line 5" x2="17.555" y2="12.539" transform="translate(-557.992 2115.925)" fill="none" stroke="#707070" stroke-width="1"/>
    <line id="Line_6" data-name="Line 6" y1="16.928" transform="translate(-564.47 2086.644)" fill="none" stroke="#707070" stroke-width="1"/>
    <g id="Polygon_1" data-name="Polygon 1" transform="translate(-567.845 2075.845)" fill="#707070">
      <path d="M 6.069179534912109 10.29883766174316 L 0.6800923347473145 10.29883766174316 L 3.374635934829712 1.676304221153259 L 6.069179534912109 10.29883766174316 Z" stroke="none"/>
      <path d="M 3.374635934829712 3.352611064910889 L 1.360188961029053 9.798837661743164 L 5.389082908630371 9.798837661743164 L 3.374635934829712 3.352611064910889 M 3.374635934829712 -2.86102294921875e-06 L 6.749276161193848 10.79883766174316 L -4.291534423828125e-06 10.79883766174316 L 3.374635934829712 -2.86102294921875e-06 Z" stroke="none" fill="#707070"/>
    </g>
    <g id="Polygon_2" data-name="Polygon 2" transform="translate(-589.391 2134.361) rotate(-127)" fill="#707070">
      <path d="M 6.256689548492432 7.345596313476562 L 0.7718297243118286 7.345596313476562 L 3.514259576797485 1.223110437393188 L 6.256689548492432 7.345596313476562 Z" stroke="none"/>
      <path d="M 3.514259576797485 2.446236610412598 L 1.543665409088135 6.845596313476562 L 5.484853744506836 6.845596313476562 L 3.514259576797485 2.446236610412598 M 3.514259576797485 -3.337860107421875e-06 L 7.028519630432129 7.845596313476562 L -4.76837158203125e-07 7.845596313476562 L 3.514259576797485 -3.337860107421875e-06 Z" stroke="none" fill="#707070"/>
    </g>
    <g id="Polygon_3" data-name="Polygon 3" transform="matrix(-0.574, 0.819, -0.819, -0.574, -535.215, 2127.926)" fill="#707070">
      <path d="M 5.727051734924316 7.913543701171875 L 0.7273054718971252 7.913543701171875 L 3.227178573608398 1.396156430244446 L 5.727051734924316 7.913543701171875 Z" stroke="none"/>
      <path d="M 3.227178573608398 2.792293071746826 L 1.454606056213379 7.413543701171875 L 4.999751091003418 7.413543701171875 L 3.227178573608398 2.792293071746826 M 3.227178573608398 3.814697265625e-06 L 6.454358577728271 8.413543701171875 L -1.430511474609375e-06 8.413543701171875 L 3.227178573608398 3.814697265625e-06 Z" stroke="none" fill="#707070"/>
    </g>
  </g>
</svg>
