<svg xmlns="http://www.w3.org/2000/svg" width="60" height="68" viewBox="0 0 60 68">
  <g id="barometer" transform="translate(-29.206 -572.36)">
    <g id="Group_7" data-name="Group 7" transform="translate(29.206 572.36)">
      <g id="Group_6" data-name="Group 6" transform="translate(0 0)">
        <path id="Path_85" data-name="Path 85" d="M194.645,772.405a1.384,1.384,0,0,0,1.007-.426l2.879-2.922a4.35,4.35,0,0,0,6.227-3.915,4.2,4.2,0,0,0-.411-1.8.014.014,0,0,0,.014-.014l3.333-3.39v.879a1.418,1.418,0,1,0,2.837,0V756.49a1.414,1.414,0,0,0-1.418-1.418h-4.354a1.418,1.418,0,1,0,0,2.837h.95l-3.362,3.433-.014.014a4.362,4.362,0,0,0-1.915-.44,4.3,4.3,0,0,0-4.355,4.227,4.387,4.387,0,0,0,.454,1.929l-2.879,2.922a1.418,1.418,0,0,0,1.007,2.411Zm5.773-8.652a1.448,1.448,0,1,1,0,2.894,1.5,1.5,0,0,1-1.518-1.5A1.479,1.479,0,0,1,200.418,763.753Z" transform="translate(-170.456 -729.759)" fill="#797979"/>
        <path id="Path_86" data-name="Path 86" d="M65.946,581.589h0a6.9,6.9,0,0,0-2.207-7.554,7,7,0,0,0-9.066-.014,6.926,6.926,0,0,0-2.221,7.568,30.008,30.008,0,1,0,13.495,0Zm-9.513-5.407h0c.014-.014.028-.014.028-.028a4.183,4.183,0,0,1,5.448-.028c.014.014.042.028.056.056a4.127,4.127,0,0,1,1.173,4.892,31.044,31.044,0,0,0-7.879,0A4.088,4.088,0,0,1,56.433,576.181ZM59.2,637.573a27.256,27.256,0,0,1-24.712-15.707H83.9A27.22,27.22,0,0,1,59.2,637.573Zm-12.07-41.1a19.051,19.051,0,0,1,24.154,0,18.133,18.133,0,0,1,4.345,22.606H42.771A18.136,18.136,0,0,1,47.129,596.473Zm37.788,22.62H78.729a21.418,21.418,0,0,0,1.579-12.167,20.656,20.656,0,0,0-7.25-12.6,21.874,21.874,0,0,0-27.7,0,20.656,20.656,0,0,0-7.25,12.6,21.418,21.418,0,0,0,1.579,12.167H33.369a26.691,26.691,0,0,1-1.383-8.488,27.147,27.147,0,0,1,27.213-27h0a27.126,27.126,0,0,1,27.213,26.982,26.775,26.775,0,0,1-1.383,8.5Z" transform="translate(-29.206 -572.361)" fill="#797979"/>
      </g>
    </g>
  </g>
</svg>
