<svg id="gyroscope" xmlns="http://www.w3.org/2000/svg" xmlns:xlink="http://www.w3.org/1999/xlink" width="60" height="60" viewBox="0 0 60 60">
  <defs>
    <clipPath id="clip-path">
      <rect id="Rectangle_44" data-name="Rectangle 44" width="60" height="60" fill="#797979"/>
    </clipPath>
  </defs>
  <g id="Group_8" data-name="Group 8" clip-path="url(#clip-path)">
    <path id="Path_160" data-name="Path 160" d="M327.88,317.711c-3.953-4.1-8.532-6-10.226-4.245s.137,6.51,4.09,10.613,8.532,6,10.226,4.245-.137-6.51-4.09-10.613m.191,6.567c-.771.8-2.856-.065-4.656-1.933s-2.634-4.032-1.862-4.832,2.856.065,4.656,1.933,2.634,4.032,1.862,4.832" transform="translate(-294.812 -290.895)" fill="#797979"/>
    <path id="Path_161" data-name="Path 161" d="M185.683,141.632a17.108,17.108,0,0,0-7.07.335,27.487,27.487,0,0,0-6.807,2.7,27.792,27.792,0,0,0-3.006-1.247c-4.956-1.708-9.01-1.324-11.415,1.081s-2.789,6.459-1.081,11.415a42.956,42.956,0,0,0,23.648,23.648,17.394,17.394,0,0,0,5.6,1.051,7.938,7.938,0,0,0,5.812-2.132c2.405-2.405,2.789-6.459,1.081-11.415a27.81,27.81,0,0,0-1.247-3.006,27.482,27.482,0,0,0,2.7-6.807,17.107,17.107,0,0,0,.335-7.07,10.209,10.209,0,0,0-8.559-8.559m4.872,26.094a14.4,14.4,0,0,1,.915,5.615,5.186,5.186,0,0,1-5.25,5.25,14.4,14.4,0,0,1-5.615-.915A40.992,40.992,0,0,1,158.2,155.269a14.4,14.4,0,0,1-.915-5.615,5.186,5.186,0,0,1,5.25-5.25q.334-.024.682-.024a15.349,15.349,0,0,1,4.934.939q.782.27,1.577.607a37.578,37.578,0,0,0-6.016,4.9c-.576.576-1.139,1.175-1.674,1.781a1,1,0,0,0,1.5,1.325c.507-.575,1.041-1.144,1.588-1.69a35.074,35.074,0,0,1,6.745-5.3,43.555,43.555,0,0,1,17.061,17.061,35.081,35.081,0,0,1-5.3,6.745c-.46.46-.937.913-1.418,1.345a1,1,0,0,0,1.339,1.489c.507-.456,1.009-.933,1.494-1.418a37.567,37.567,0,0,0,4.9-6.016q.337.794.607,1.577m1.4-10.935a24.663,24.663,0,0,1-1.893,5.13,46.128,46.128,0,0,0-16.114-16.114,24.661,24.661,0,0,1,5.13-1.893c4.6-1.11,8.465-.4,10.869,2.008s3.117,6.264,2.008,10.869" transform="translate(-144.376 -131.498)" fill="#797979"/>
    <path id="Path_162" data-name="Path 162" d="M150.481,481.492c-4.841,1.3-9.279.379-12.175-2.517-2.783-2.783-3.745-7.044-2.64-11.691a1,1,0,1,0-1.948-.463c-1.27,5.339-.114,10.285,3.172,13.57a12.536,12.536,0,0,0,6.44,3.381,15.184,15.184,0,0,0,2.989.289,18.157,18.157,0,0,0,4.681-.634,1,1,0,1,0-.518-1.934" transform="translate(-123.881 -433.4)" fill="#797979"/>
    <path id="Path_163" data-name="Path 163" d="M52.188,9.809,55.1,6.9a3.351,3.351,0,1,0-2-2l-2.91,2.91A30,30,0,0,0,7.81,50.191L4.9,53.1a3.354,3.354,0,1,0,2,2l2.91-2.91a30,30,0,0,0,42.38-42.38M49.493,49.494A27.569,27.569,0,0,1,10.5,10.506,27.569,27.569,0,0,1,49.493,49.494" transform="translate(0.001)" fill="#797979"/>
  </g>
</svg>
