<svg xmlns="http://www.w3.org/2000/svg" width="40" height="60" viewBox="0 0 40 60">
  <g id="humidity" transform="translate(-50.362 0)">
    <path id="Path_100" data-name="Path 100" d="M78.26,9.275a1.284,1.284,0,0,0-1.84-.293,1.406,1.406,0,0,0-.281,1.914c9.579,13.56,11.59,22.557,11.59,27.717A20.531,20.531,0,0,1,83.64,51.52c-3.075,3.81-7.543,5.742-13.279,5.742-12.819,0-17.367-10.046-17.367-18.648,0-9.536,4.933-18.849,9.071-24.983A78.329,78.329,0,0,1,71.258,2.373,1.409,1.409,0,0,0,71.326.437a1.281,1.281,0,0,0-1.86-.071,79.468,79.468,0,0,0-9.523,11.643c-4.371,6.469-9.581,16.335-9.581,26.6a23.209,23.209,0,0,0,4.781,14.671C58.716,57.678,63.979,60,70.362,60c6.458,0,11.747-2.324,15.295-6.719a23.325,23.325,0,0,0,4.705-14.667C90.362,28.523,83.781,17.09,78.26,9.275Z" transform="translate(0 0)" fill="#797979"/>
    <path id="Path_101" data-name="Path 101" d="M119.094,146.356l-17.616,17.616a1.388,1.388,0,0,0,1.964,1.963l17.616-17.616a1.388,1.388,0,1,0-1.964-1.963Z" transform="translate(-42.264 -119.487)" fill="#797979"/>
    <path id="Path_102" data-name="Path 102" d="M172.321,207.9a4.462,4.462,0,1,0,4.462,4.462A4.467,4.467,0,0,0,172.321,207.9Zm0,6.148a1.686,1.686,0,1,1,1.686-1.686A1.688,1.688,0,0,1,172.321,214.047Z" transform="translate(-97.176 -170.03)" fill="#797979"/>
    <path id="Path_103" data-name="Path 103" d="M105.534,154.875a4.462,4.462,0,1,0-4.462-4.462A4.467,4.467,0,0,0,105.534,154.875Zm0-6.148a1.686,1.686,0,1,1-1.686,1.686A1.688,1.688,0,0,1,105.534,148.727Z" transform="translate(-41.94 -119.365)" fill="#797979"/>
  </g>
</svg>
