<svg xmlns="http://www.w3.org/2000/svg" width="76" height="60" viewBox="0 0 76 60">
  <g id="lidar" transform="translate(-21.336 -52.386)">
    <path id="path2770" d="M100.663,90.984v11.133l-1.585-5.884-1.223.33,1.681,6.268-5.745-9.94-1.033.585,5.888,10.194L93.93,98.953l-.956.941L97.3,104.2l-9.547-5.5L87.1,99.818l9.671,5.58-6.038-1.615-.367,1.373,6.544,1.743H85.248v1.487h11.3L90.1,110.114l.293,1.131,7.309-1.959L87,115.463l.712,1.234,9.827-5.668-4.515,4.511.879.89,4.881-4.881-5.9,10.219,1.08.622L99.8,112.285l-1.754,6.521,1.26.33s1.065-3.372,1.487-5.056c-.146,2.662.113,10.384.113,10.384h1.347V112.655l1.768,6.583,1.333-.355-1.739-6.5,5.73,9.926,1.2-.685-5.759-9.966,4.438,4.438.864-.853-4.526-4.526,9.963,5.759.674-1.157-9.644-5.565,5.606,1.512L112.5,110l-5.4-1.45h30.785v-1.856H106.613l6.089-1.626-.267-1.044-6.331,1.692,9.952-5.745-.648-1.12-10.142,5.858,4.818-4.815-.9-.9-4.69,4.7,5.785-10.042-1.08-.623-5.657,9.786,1.615-6.049-1.373-.37-1.6,5.975V90.984h-1.516Z" transform="translate(-40.546 -24.499)" fill="#797979" fill-rule="evenodd"/>
    <path id="path2872" d="M30.139,112.386l-8.8-8.793a29.967,29.967,0,0,0,0-42.413l8.8-8.794a42.392,42.392,0,0,1,0,60Z" transform="translate(0 0)" fill="#797979"/>
  </g>
</svg>
