<svg xmlns="http://www.w3.org/2000/svg" width="60" height="60" viewBox="0 0 60 60">
  <g id="pin-outline" transform="translate(30 30)">
    <g id="pin-outline-2" data-name="pin-outline" transform="translate(-30 -30)">
      <g id="pin" transform="translate(0 0)">
        <rect id="Rectangle_28" data-name="Rectangle 28" width="60" height="60" fill="#797979" opacity="0"/>
        <path id="Path_94" data-name="Path 94" d="M23.988,2A19.989,19.989,0,0,0,4,21.789C4,35.48,21.615,50.721,22.364,51.371a2.5,2.5,0,0,0,3.248,0c.874-.65,18.364-15.891,18.364-29.583A19.988,19.988,0,0,0,23.988,2Zm0,44.1C19.816,42.127,9,31.108,9,21.788a14.991,14.991,0,1,1,29.982,0C38.98,31.033,28.161,42.127,23.988,46.1Z" transform="translate(5.994 3.032)" fill="#797979"/>
        <path id="Path_95" data-name="Path 95" d="M17.245,6a8.745,8.745,0,1,0,8.745,8.745A8.745,8.745,0,0,0,17.245,6Zm0,12.493a3.748,3.748,0,1,1,3.748-3.748A3.748,3.748,0,0,1,17.245,18.493Z" transform="translate(12.738 9.026)" fill="#797979"/>
      </g>
    </g>
  </g>
</svg>
