<svg xmlns="http://www.w3.org/2000/svg" xmlns:xlink="http://www.w3.org/1999/xlink" width="375" height="375" viewBox="0 0 375 375">
  <defs>
    <radialGradient id="radial-gradient" cx="0.5" cy="0.5" r="0.5" gradientUnits="objectBoundingBox">
      <stop offset="0" stop-color="#006400" stop-opacity="0.2"/>
      <stop offset="0.074" stop-color="#107b10" stop-opacity="0.494"/>
      <stop offset="0.596" stop-color="#00bf00"/>
      <stop offset="1" stop-color="#063b06" stop-opacity="0"/>
    </radialGradient>
  </defs>
  <g id="green-circle" transform="translate(-206 187)">
    <circle id="Ellipse_2" data-name="Ellipse 2" cx="187.5" cy="187.5" r="187.5" transform="translate(206 -187)" opacity="0.598" fill="url(#radial-gradient)"/>
    <g id="Ellipse_1" data-name="Ellipse 1" transform="translate(318 -75)" fill="none" stroke="#000" stroke-width="2.6" opacity="0.773">
      <circle cx="75" cy="75" r="75" stroke="none"/>
      <circle cx="75" cy="75" r="73.7" fill="none"/>
    </g>
    <g id="Path_46" data-name="Path 46" transform="translate(281 -112)" fill="none">
      <path d="M112.5,0A112.5,112.5,0,1,1,0,112.5,112.5,112.5,0,0,1,112.5,0Z" stroke="none"/>
      <path d="M 112.5 2.600006103515625 C 105.0417175292969 2.600006103515625 97.58890533447266 3.351211547851562 90.34855651855469 4.832809448242188 C 83.29356384277344 6.276473999023438 76.35403442382812 8.430618286132812 69.72274780273438 11.23541259765625 C 63.21128845214844 13.98953247070312 56.9307861328125 17.39849853515625 51.05569458007812 21.36766052246094 C 45.2357177734375 25.29953002929688 39.7628173828125 29.81512451171875 34.78897094726562 34.78897094726562 C 29.81512451171875 39.7628173828125 25.29953002929688 45.2357177734375 21.36766052246094 51.05569458007812 C 17.39849853515625 56.9307861328125 13.98953247070312 63.21128845214844 11.23541259765625 69.72274780273438 C 8.430618286132812 76.35403442382812 6.276473999023438 83.29356384277344 4.832809448242188 90.34855651855469 C 3.351211547851562 97.58890533447266 2.600006103515625 105.0417175292969 2.600006103515625 112.5 C 2.600006103515625 119.9582824707031 3.351211547851562 127.4110946655273 4.832809448242188 134.6514282226562 C 6.276473999023438 141.7064361572266 8.430618286132812 148.6459655761719 11.23541259765625 155.2772521972656 C 13.98953247070312 161.7887268066406 17.39849853515625 168.0692138671875 21.36766052246094 173.9443054199219 C 25.29953002929688 179.7642822265625 29.81512451171875 185.2371826171875 34.78897094726562 190.2110290527344 C 39.7628173828125 195.1848754882812 45.2357177734375 199.7004699707031 51.05569458007812 203.6323394775391 C 56.9307861328125 207.6015014648438 63.21128845214844 211.0104675292969 69.72274780273438 213.7645874023438 C 76.35403442382812 216.5693817138672 83.29356384277344 218.7235260009766 90.34855651855469 220.1671905517578 C 97.58890533447266 221.6487884521484 105.0417175292969 222.3999938964844 112.5 222.3999938964844 C 119.9582824707031 222.3999938964844 127.4110946655273 221.6487884521484 134.6514282226562 220.1671905517578 C 141.7064361572266 218.7235260009766 148.6459655761719 216.5693817138672 155.2772521972656 213.7645874023438 C 161.7887268066406 211.0104675292969 168.0692138671875 207.6015014648438 173.9443054199219 203.6323394775391 C 179.7642822265625 199.7004699707031 185.2371826171875 195.1848754882812 190.2110290527344 190.2110290527344 C 195.1848754882812 185.2371826171875 199.7004699707031 179.7642822265625 203.6323394775391 173.9443054199219 C 207.6015014648438 168.0692138671875 211.0104675292969 161.7887268066406 213.7645874023438 155.2772521972656 C 216.5693817138672 148.6459655761719 218.7235260009766 141.7064361572266 220.1671905517578 134.6514282226562 C 221.6487884521484 127.4110946655273 222.3999938964844 119.9582824707031 222.3999938964844 112.5 C 222.3999938964844 105.0417175292969 221.6487884521484 97.58890533447266 220.1671905517578 90.34855651855469 C 218.7235260009766 83.29356384277344 216.5693817138672 76.35403442382812 213.7645874023438 69.72274780273438 C 211.0104675292969 63.21128845214844 207.6015014648438 56.9307861328125 203.6323394775391 51.05569458007812 C 199.7004699707031 45.2357177734375 195.1848754882812 39.7628173828125 190.2110290527344 34.78897094726562 C 185.2371826171875 29.81512451171875 179.7642822265625 25.29953002929688 173.9443054199219 21.36766052246094 C 168.0692138671875 17.39849853515625 161.7887268066406 13.98953247070312 155.2772521972656 11.23541259765625 C 148.6459655761719 8.430618286132812 141.7064361572266 6.276473999023438 134.6514282226562 4.832809448242188 C 127.4110946655273 3.351211547851562 119.9582824707031 2.600006103515625 112.5 2.600006103515625 M 112.5 0 C 174.6320343017578 0 225 50.36796569824219 225 112.5 C 225 174.6320343017578 174.6320343017578 225 112.5 225 C 50.36796569824219 225 0 174.6320343017578 0 112.5 C 0 50.36796569824219 50.36796569824219 0 112.5 0 Z" stroke="none" fill="#000"/>
    </g>
    <g id="Path_47" data-name="Path 47" transform="translate(241 -150)" fill="none">
      <path d="M150,0A150,150,0,1,1,0,150,150,150,0,0,1,150,0Z" stroke="none"/>
      <path d="M 150 2.600006103515625 C 139.9974212646484 2.600006103515625 130.0018310546875 3.6075439453125 120.2910003662109 5.59466552734375 C 110.8282928466797 7.531036376953125 101.5204620361328 10.42031860351562 92.62608337402344 14.182373046875 C 83.892578125 17.8763427734375 75.46891784667969 22.44854736328125 67.58908081054688 27.7720947265625 C 59.78341674804688 33.04547119140625 52.44325256347656 39.10165405273438 45.7724609375 45.7724609375 C 39.10165405273438 52.44325256347656 33.04547119140625 59.78341674804688 27.7720947265625 67.58908081054688 C 22.44854736328125 75.46891784667969 17.8763427734375 83.892578125 14.182373046875 92.62608337402344 C 10.42031860351562 101.5204620361328 7.531036376953125 110.8282928466797 5.59466552734375 120.2910003662109 C 3.6075439453125 130.0018310546875 2.600006103515625 139.9974212646484 2.600006103515625 150 C 2.600006103515625 160.0025787353516 3.6075439453125 169.9981689453125 5.59466552734375 179.7089996337891 C 7.531036376953125 189.1717071533203 10.42031860351562 198.4795379638672 14.182373046875 207.3739166259766 C 17.8763427734375 216.107421875 22.44854736328125 224.5310821533203 27.7720947265625 232.4109191894531 C 33.04547119140625 240.2165832519531 39.10165405273438 247.5567474365234 45.7724609375 254.2275390625 C 52.44325256347656 260.8983459472656 59.78341674804688 266.9545288085938 67.58908081054688 272.2279052734375 C 75.46891784667969 277.5514526367188 83.892578125 282.1236572265625 92.62608337402344 285.817626953125 C 101.5204620361328 289.5796813964844 110.8282928466797 292.4689636230469 120.2910003662109 294.4053344726562 C 130.0018310546875 296.3924560546875 139.9974212646484 297.3999938964844 150 297.3999938964844 C 160.0025787353516 297.3999938964844 169.9981689453125 296.3924560546875 179.7089996337891 294.4053344726562 C 189.1717071533203 292.4689636230469 198.4795379638672 289.5796813964844 207.3739166259766 285.817626953125 C 216.107421875 282.1236572265625 224.5310821533203 277.5514526367188 232.4109191894531 272.2279052734375 C 240.2165832519531 266.9545288085938 247.5567474365234 260.8983459472656 254.2275390625 254.2275390625 C 260.8983459472656 247.5567474365234 266.9545288085938 240.2165832519531 272.2279052734375 232.4109191894531 C 277.5514526367188 224.5310821533203 282.1236572265625 216.107421875 285.817626953125 207.3739166259766 C 289.5796813964844 198.4795379638672 292.4689636230469 189.1717071533203 294.4053344726562 179.7089996337891 C 296.3924560546875 169.9981689453125 297.3999938964844 160.0025787353516 297.3999938964844 150 C 297.3999938964844 139.9974212646484 296.3924560546875 130.0018310546875 294.4053344726562 120.2910003662109 C 292.4689636230469 110.8282928466797 289.5796813964844 101.5204620361328 285.817626953125 92.62608337402344 C 282.1236572265625 83.892578125 277.5514526367188 75.46891784667969 272.2279052734375 67.58908081054688 C 266.9545288085938 59.78341674804688 260.8983459472656 52.44325256347656 254.2275390625 45.7724609375 C 247.5567474365234 39.10165405273438 240.2165832519531 33.04547119140625 232.4109191894531 27.7720947265625 C 224.5310821533203 22.44854736328125 216.107421875 17.8763427734375 207.3739166259766 14.182373046875 C 198.4795379638672 10.42031860351562 189.1717071533203 7.531036376953125 179.7089996337891 5.59466552734375 C 169.9981689453125 3.6075439453125 160.0025787353516 2.600006103515625 150 2.600006103515625 M 150 0 C 232.8427124023438 0 300 67.15728759765625 300 150 C 300 232.8427124023438 232.8427124023438 300 150 300 C 67.15728759765625 300 0 232.8427124023438 0 150 C 0 67.15728759765625 67.15728759765625 0 150 0 Z" stroke="none" fill="#000"/>
    </g>
    <g id="Path_48" data-name="Path 48" transform="translate(356 -37)" fill="none">
      <path d="M37.5,0A37.5,37.5,0,1,1,0,37.5,37.5,37.5,0,0,1,37.5,0Z" stroke="none"/>
      <path d="M 37.5 2.599998474121094 C 32.78738784790039 2.599998474121094 28.21711730957031 3.522384643554688 23.91614151000977 5.341537475585938 C 19.76058959960938 7.099197387695312 16.0279655456543 9.615974426269531 12.82197570800781 12.82197570800781 C 9.615974426269531 16.0279655456543 7.099197387695312 19.76058959960938 5.341537475585938 23.91614151000977 C 3.522384643554688 28.21711730957031 2.599998474121094 32.78738784790039 2.599998474121094 37.5 C 2.599998474121094 42.21261215209961 3.522384643554688 46.78288269042969 5.341537475585938 51.08385848999023 C 7.099197387695312 55.23941040039062 9.615974426269531 58.9720344543457 12.82197570800781 62.17802429199219 C 16.0279655456543 65.38402557373047 19.76058959960938 67.90080261230469 23.91614151000977 69.65846252441406 C 28.21711730957031 71.47761535644531 32.78738784790039 72.40000152587891 37.5 72.40000152587891 C 42.21261215209961 72.40000152587891 46.78288269042969 71.47761535644531 51.08385848999023 69.65846252441406 C 55.23941040039062 67.90080261230469 58.9720344543457 65.38402557373047 62.17802429199219 62.17802429199219 C 65.38402557373047 58.9720344543457 67.90080261230469 55.23941040039062 69.65846252441406 51.08385848999023 C 71.47761535644531 46.78288269042969 72.40000152587891 42.21261215209961 72.40000152587891 37.5 C 72.40000152587891 32.78738784790039 71.47761535644531 28.21711730957031 69.65846252441406 23.91614151000977 C 67.90080261230469 19.76058959960938 65.38402557373047 16.0279655456543 62.17802429199219 12.82197570800781 C 58.9720344543457 9.615974426269531 55.23941040039062 7.099197387695312 51.08385848999023 5.341537475585938 C 46.78288269042969 3.522384643554688 42.21261215209961 2.599998474121094 37.5 2.599998474121094 M 37.5 0 C 58.2106819152832 0 75 16.7893180847168 75 37.5 C 75 58.2106819152832 58.2106819152832 75 37.5 75 C 16.7893180847168 75 0 58.2106819152832 0 37.5 C 0 16.7893180847168 16.7893180847168 0 37.5 0 Z" stroke="none" fill="#000"/>
    </g>
  </g>
</svg>
