<?xml version="1.0" encoding="UTF-8"?><svg id="a" xmlns="http://www.w3.org/2000/svg" xmlns:xlink="http://www.w3.org/1999/xlink" viewBox="0 0 187.5 199.6"><defs><clipPath id="b"><rect width="187.5" height="199.6" style="fill:none;"/></clipPath><clipPath id="c"><path d="m0,.2C191.2-.1,375,.2,375,.2v187H0" style="fill:none;"/></clipPath><radialGradient id="e" cx="-726.69" cy="584.52" fx="-726.69" fy="584.52" r=".5" gradientTransform="translate(272694.42 -219194.84) scale(375)" gradientUnits="userSpaceOnUse"><stop offset="0" stop-color="#006400" stop-opacity=".2"/><stop offset=".07" stop-color="#107b10" stop-opacity=".49"/><stop offset=".6" stop-color="#00bf00"/><stop offset="1" stop-color="#063b06" stop-opacity="0"/></radialGradient></defs><g style="clip-path:url(#b);"><g style="clip-path:url(#c);"><g id="d"><circle id="f" cx="187.5" cy="-.4" r="187.5" style="fill:url(#e); isolation:isolate; opacity:.6;"/><g id="g" style="opacity:.77;"><circle cx="187" cy=".2" r="75" style="fill:none;"/><circle cx="187" cy=".2" r="73.7" style="fill:none; stroke:#000; stroke-width:2.6px;"/></g><g id="h"><path d="m187.5,112.2c62.1,0,112.5-50.4,112.5-112.5s-50.4-112.5-112.5-112.5S75-62.5,75-.3s50.4,112.5,112.5,112.5Z" style="fill:none;"/><path d="m187.5,109.6c-7.5,0-14.9-.8-22.1-2.2-7.1-1.4-14-3.6-20.6-6.4-6.5-2.8-12.8-6.2-18.7-10.1-5.8-3.9-11.3-8.4-16.3-13.4s-9.5-10.4-13.4-16.3c-4-5.9-7.4-12.2-10.1-18.7-2.8-6.6-5-13.6-6.4-20.6-1.5-7.2-2.2-14.7-2.2-22.1s.8-14.9,2.2-22.1c1.4-7.1,3.6-14,6.4-20.6,2.8-6.5,6.2-12.8,10.1-18.7,3.9-5.8,8.4-11.3,13.4-16.3s10.4-9.5,16.3-13.4c5.9-4,12.2-7.4,18.7-10.1,6.6-2.8,13.6-5,20.6-6.4,7.2-1.5,14.7-2.2,22.1-2.2s14.9.8,22.1,2.2c7.1,1.4,14,3.6,20.6,6.4,6.5,2.8,12.8,6.2,18.7,10.1,5.8,3.9,11.3,8.4,16.3,13.4s9.5,10.4,13.4,16.3c4,5.9,7.4,12.2,10.1,18.7,2.8,6.6,5,13.6,6.4,20.6,1.5,7.2,2.2,14.7,2.2,22.1s-.8,14.9-2.2,22.1c-1.4,7.1-3.6,14-6.4,20.6-2.8,6.5-6.2,12.8-10.1,18.7-3.9,5.8-8.5,11.3-13.4,16.3s-10.4,9.5-16.3,13.4c-5.9,4-12.2,7.4-18.7,10.1-6.6,2.8-13.6,5-20.6,6.4-7.2,1.4-14.6,2.2-22.1,2.2m0,2.6c62.1,0,112.5-50.4,112.5-112.5s-50.4-112.5-112.5-112.5S75-62.5,75-.3s50.4,112.5,112.5,112.5Z"/></g><g id="i"><path d="m185,150.1c82.8,0,150-67.2,150-150s-67.2-150-150-150S35-82.7,35,.1s67.2,150,150,150Z" style="fill:none;"/><path d="m185,147.6c-10,0-20-1-29.7-3-9.5-1.9-18.8-4.8-27.7-8.6-8.7-3.7-17.2-8.3-25-13.6-7.8-5.3-15.2-11.3-21.8-18s-12.7-14-18-21.8c-5.3-7.9-9.9-16.3-13.6-25-3.8-8.9-6.6-18.2-8.6-27.7-2-9.7-3-19.7-3-29.7s1-20,3-29.7c1.9-9.5,4.8-18.8,8.6-27.7,3.7-8.7,8.3-17.2,13.6-25,5.3-7.8,11.3-15.2,18-21.8s14-12.7,21.8-18c7.9-5.3,16.3-9.9,25-13.6,8.9-3.8,18.2-6.6,27.7-8.6,9.7-2,19.7-3,29.7-3s20,1,29.7,3c9.5,1.9,18.8,4.8,27.7,8.6,8.7,3.7,17.2,8.3,25,13.6,7.8,5.3,15.2,11.3,21.8,18,6.7,6.7,12.7,14,18,21.8,5.3,7.9,9.9,16.3,13.6,25,3.8,8.9,6.6,18.2,8.6,27.7,2,9.7,3,19.7,3,29.7s-1,20-3,29.7c-1.9,9.5-4.8,18.8-8.6,27.7-3.7,8.7-8.3,17.2-13.6,25-5.3,7.8-11.3,15.2-18,21.8-6.7,6.7-14,12.7-21.8,18-7.9,5.3-16.3,9.9-25,13.6-8.9,3.8-18.2,6.6-27.7,8.6-9.7,2-19.7,3-29.7,3m0,2.6c82.8,0,150-67.2,150-150s-67.2-150-150-150S35-82.7,35,.2s67.2,149.9,150,150h0Z"/></g><g id="j"><path d="m187.5,37.2c20.7,0,37.5-16.8,37.5-37.5s-16.8-37.5-37.5-37.5S150-21.1,150-.3s16.8,37.5,37.5,37.5Z" style="fill:none;"/><path d="m187.5,34.5c-4.7,0-9.3-.9-13.6-2.7-4.2-1.8-7.9-4.3-11.1-7.5-3.2-3.2-5.7-6.9-7.5-11.1-1.8-4.3-2.7-8.9-2.7-13.6s.9-9.3,2.7-13.6c1.8-4.2,4.3-7.9,7.5-11.1s6.9-5.7,11.1-7.5c4.3-1.8,8.9-2.7,13.6-2.7s9.3.9,13.6,2.7c4.2,1.8,7.9,4.3,11.1,7.5,3.2,3.2,5.7,6.9,7.5,11.1,1.8,4.3,2.7,8.9,2.7,13.6s-.9,9.3-2.7,13.6c-1.8,4.2-4.3,7.9-7.5,11.1s-6.9,5.7-11.1,7.5c-4.3,1.8-8.9,2.7-13.6,2.7m0,2.6c20.7,0,37.5-16.8,37.5-37.5s-16.8-37.5-37.5-37.5S150-21.1,150-.3s16.8,37.5,37.5,37.4Z"/></g></g></g></g></svg>