<svg xmlns="http://www.w3.org/2000/svg" xmlns:xlink="http://www.w3.org/1999/xlink" width="363" height="327" viewBox="0 0 363 327"><defs><clipPath id="a"><rect width="209.186" height="193.818" fill="none"/></clipPath><clipPath id="b"><path d="M291.168,234.28a51.981,51.981,0,0,0,35.412-64.418c-1.782-17.77,41.179-32.6,51.831-27.206A31.985,31.985,0,1,0,369.947,119c-.4,3.421,1.458,13.63-26.665,24.148-7.965,2.98-22.59,7.541-34.1.67a52.216,52.216,0,0,0-23.343-10.607c-10.968-.874-1.527-38.511,5.884-42.777a24.108,24.108,0,1,0-18.412-4.428c1.993,1.662,9.2,4.709,4.216,26.791-1.313,5.822-4.149,15.839-11.856,20.765-1.168.255-2.336.541-3.5.88a51.981,51.981,0,0,0,29,99.836" transform="translate(-224.683 -42.54)" fill="none"/></clipPath><linearGradient id="c" x1="-1.986" y1="3.84" x2="-1.977" y2="3.84" gradientUnits="objectBoundingBox"><stop offset="0" stop-color="#696969"/><stop offset="0.005" stop-color="#696969"/><stop offset="1" stop-color="silver"/></linearGradient><clipPath id="d"><rect width="245" height="217.364" fill="none"/></clipPath><clipPath id="e"><path d="M447.831,98.041a62.271,62.271,0,0,0-87.863,5.468c-16.831,13.186-59.38-20.746-60.748-34.977a38.307,38.307,0,1,0-18.5,23.714c3.714-1.791,12.852-10.207,41.521,11.492,8.122,6.146,22.113,18.01,22.54,34.046a62.5,62.5,0,0,0,4.237,30.4c6.147,11.652-37.975,26.22-47.04,21.457A28.852,28.852,0,1,0,309.3,211.1c.4-3.082-1.133-12.317,24.4-21.43,6.731-2.4,18.681-5.952,28.6-1.316,1.008,1.019,2.044,2.016,3.134,2.978a62.232,62.232,0,1,0,82.394-93.288" transform="translate(-223.883 -20.443)" fill="none"/></clipPath><linearGradient id="f" x1="-1.693" y1="3.656" x2="-1.685" y2="3.656" gradientUnits="objectBoundingBox"><stop offset="0" stop-color="#228d22"/><stop offset="1" stop-color="#00ff7f"/></linearGradient><clipPath id="g"><rect width="6.708" height="5.731" fill="none"/></clipPath><clipPath id="h"><rect width="2.743" height="6.128" fill="none"/></clipPath></defs><g transform="translate(-15 -54)"><g transform="translate(5.133 28.089)"><g transform="translate(127.436 69.093)" style="mix-blend-mode:multiply;isolation:isolate"><g clip-path="url(#a)"><g transform="translate(0.001 0)"><g clip-path="url(#b)"><rect width="218.768" height="202.586" transform="translate(-5.931 -2.836)" fill="url(#c)"/></g></g></g></g><g transform="translate(125.867 25.911)" style="mix-blend-mode:multiply;isolation:isolate"><g clip-path="url(#d)"><g transform="translate(0 0)"><g clip-path="url(#e)"><rect width="256.582" height="224.957" transform="translate(-4.412 -4.409)" fill="url(#f)"/></g></g></g></g></g><g transform="translate(-1179.044 232.661)"><path d="M384.37,174.744q8.314,0,12.956,4.64t4.64,13.02q0,8.314-4.64,12.954T384.37,210q-8.38,0-13.019-4.642T366.71,192.4v-32.87h4.512v20.045A15.085,15.085,0,0,1,376.8,176a20.916,20.916,0,0,1,2.046-.633c.233-.057.947-.23,1.951-.377a30.668,30.668,0,0,1,3.575-.246m0,30.809q6.381,0,9.764-3.385t3.383-9.764q0-6.443-3.383-9.8t-9.764-3.352q-6.445,0-9.8,3.352t-3.351,9.8q0,6.381,3.351,9.764a12.284,12.284,0,0,0,8.1,3.323q.818.062,1.692.062" transform="translate(1113.667 -61.661)" fill="#231f20"/><g transform="translate(1493.784 111.985)" style="mix-blend-mode:luminosity;isolation:isolate"><g clip-path="url(#g)"><path d="M378.945,175.564c0-5.614-3.089-5.209-3.089-5.209l.681-.138.513-.075-.137-.149,2.078-.046-.894-.018,2.062-.018.658.009,1.748.015-.74.037v5.671l-1.682-.077-.927.022-.263.015" transform="translate(-375.856 -169.91)" fill="#fff"/></g></g><g transform="translate(1499.678 112.134)" style="mix-blend-mode:luminosity;isolation:isolate"><g clip-path="url(#h)"><path d="M382.62,176.073l-1.1-.277-.67-.122-.943-.116v-5.615a7.492,7.492,0,0,0,.525,3.463,5.611,5.611,0,0,0,2.192,2.667" transform="translate(-379.877 -169.945)" fill="#fff"/></g></g><path d="M362.722,204.446c-4.339-.019-18.007,0-18.274,0a10.212,10.212,0,0,1-9.816-10.226c0-4.6,2.939-10.276,12.167-10.276,7.212,0,11.355.007,13.495-.018a16.683,16.683,0,0,1,7.243,1.291c-.937-5.169-3.265-9.21-8.278-11.185-1.834-.721-3.084-.894-16.055-.894a2.056,2.056,0,0,1-2.051-2.058v-2.788c1.925,0-.15.05,13.331,0a18.1,18.1,0,0,1,18.073,18.07c0,9.1.018,7.378-.045,8.549h.02a10.216,10.216,0,0,1-9.811,9.537m-.91-15.637c-1.884-.038-12.127-.062-16.748,0v.022a5.383,5.383,0,1,0-.186,10.763c10.115,0,13.6,0,17.736.016.468,0,4.975-.756,5.082-5.2.056-2.408-1.479-5.518-5.884-5.6" transform="translate(1098.058 -57.582)" fill="#231f20"/><path d="M405.946,168.282s-.5.006,22.559.006v2.326a2.52,2.52,0,0,1-2.514,2.517c-20.738,0-18.96,0-20.045.013a5.4,5.4,0,0,0-5.392,5.39,5.593,5.593,0,0,0,4.638,5.507c1.435.214,4.852-.421,4.852,2.42v2.326H406.1a10.409,10.409,0,0,1-10.4-10.267,10.254,10.254,0,0,1,10.251-10.239m13.674,36.18s.516-.006-22.9-.006v-2.326a2.52,2.52,0,0,1,2.518-2.517c21.216,0,19.234,0,20.382-.013a5.4,5.4,0,0,0,5.393-5.392,5.591,5.591,0,0,0-4.637-5.506c-1.432-.215-4.852.419-4.852-2.42v-2.326h3.943a10.409,10.409,0,0,1,10.406,10.267,10.259,10.259,0,0,1-10.254,10.239" transform="translate(1127.171 -57.585)" fill="#231f20"/><path d="M173.085,144.434h67.468v5.143a5.506,5.506,0,0,1-5.487,5.514H176.351a3.3,3.3,0,0,1-3.266-3.324Zm55.826,41.027H173.085v-7.433a3.2,3.2,0,0,1,3.168-3.225H234.4v5.145a5.51,5.51,0,0,1-5.487,5.514m12.648,30.37H173.085v-7.451a3.183,3.183,0,0,1,3.149-3.207h59.839a5.506,5.506,0,0,1,5.485,5.512Z" transform="translate(1020.959 -70.945)" fill="#231f20"/><path d="M241.289,194.352,226.97,167.925h3.949a3.913,3.913,0,0,1,3.465,2.011c10.227,18.879,8.688,16.054,9.118,16.833a3.567,3.567,0,0,1,.022,3.454Zm5.469,8.911h-4.653c3.756-7.214,13.784-26.47,17.355-33.327a3.735,3.735,0,0,1,3.329-2.011h3.8c-.009.018-17.771,34.073-17.742,34.073a2.343,2.343,0,0,1-2.085,1.265" transform="translate(1046.679 -57.752)" fill="#231f20"/><path d="M294.011,186.235c0,9.687-7.069,17.614-15.76,17.673-.088,0-2.672,0-2.672,0-8.9.113-16.065-7.834-16.065-17.665,0-9.525,6.9-17.708,16.05-17.671h2.382c8.9-.113,16.065,7.835,16.065,17.665m-4.251,0c0-7.13-5.194-12.934-11.6-12.934l-2.785,0c-6.4,0-11.605,5.8-11.605,12.932,0,7.208,5.27,12.935,11.6,12.935l2.8-.006c6.4,0,11.6-5.8,11.6-12.932" transform="translate(1062.197 -57.452)" fill="#231f20"/><path d="M324.706,205.07l14.033.012a5.5,5.5,0,0,1,5.484,5.512v5.146c-22.937,0-19.87.041-21.678-.067a35.888,35.888,0,0,1-33.931-35.629V144.332h5.474a5.506,5.506,0,0,1,5.487,5.514v30.185a24.817,24.817,0,0,0,25.131,25.039" transform="translate(1076.172 -70.993)" fill="#231f20"/></g></g></svg>